<svg xmlns="http://www.w3.org/2000/svg" xmlns:xlink="http://www.w3.org/1999/xlink" width="500" zoomAndPan="magnify" viewBox="0 0 375 374.999991" height="500" preserveAspectRatio="xMidYMid meet" version="1.2"><g id="3d02d9572a"><path style=" stroke:none;fill-rule:evenodd;fill:#0097b2;fill-opacity:1;" d="M 172.363281 6.742188 C 132.296875 9.855469 93.34375 27.335938 64.84375 54.988281 C 52.167969 67.285156 43.371094 78.285156 34.949219 92.359375 C 23.230469 111.953125 15.699219 133.246094 11.949219 157.386719 C 10.921875 164 10.777344 166.953125 10.757812 181.550781 C 10.742188 192.5 10.96875 199.867188 11.414062 203.117188 C 15.484375 232.703125 24.21875 256.234375 39.859375 279.773438 C 74.445312 331.824219 134.019531 361.664062 196.125 358.054688 C 214.71875 356.972656 231.113281 353.566406 248.238281 347.230469 C 254.695312 344.839844 273.238281 335.917969 275.523438 334.101562 L 276.824219 333.066406 L 274.699219 333.054688 C 268.691406 333.023438 257.773438 328.566406 251.691406 323.667969 C 249.933594 322.25 248.320312 321.09375 248.105469 321.09375 C 247.894531 321.09375 245.03125 322.15625 241.742188 323.457031 C 223.691406 330.597656 207.042969 333.675781 186.394531 333.683594 C 169.941406 333.691406 159.675781 332.285156 143.777344 327.847656 C 111.335938 318.792969 80.601562 296.371094 60.789062 267.300781 C 43.804688 242.390625 34.902344 213.160156 34.902344 182.332031 C 34.902344 157.960938 39.753906 137.074219 50.546875 115 C 57.816406 100.128906 67.496094 86.667969 79.234375 75.097656 C 101.648438 53.011719 126.382812 39.742188 156.773438 33.511719 C 166.78125 31.457031 173.566406 30.851562 186.394531 30.859375 C 202.839844 30.867188 213.121094 32.261719 228.542969 36.574219 C 261.535156 45.796875 291.703125 67.757812 312.042969 97.359375 C 337.054688 133.757812 344.617188 182.453125 331.875 225.066406 C 329.914062 231.628906 326.136719 241.761719 324.34375 245.277344 C 323.75 246.441406 323.339844 247.445312 323.429688 247.507812 C 323.523438 247.570312 325.667969 248.996094 328.203125 250.679688 C 332.761719 253.707031 337.578125 258.488281 340.488281 262.886719 L 341.949219 265.089844 L 344.925781 258.921875 C 354.355469 239.390625 359.773438 219.527344 361.84375 196.882812 C 362.699219 187.511719 362.160156 166.808594 360.828125 157.90625 C 355.011719 119.070312 338.824219 86.394531 311.6875 58.710938 C 287.863281 34.410156 257.125 17.460938 223.554688 10.113281 C 207.75 6.65625 189.199219 5.433594 172.363281 6.742188 M 168.207031 82.066406 C 161.164062 82.683594 159.335938 83.476562 148.941406 90.441406 C 140.398438 96.164062 132.257812 100.277344 127.011719 101.519531 C 123.308594 102.394531 121 102.386719 113.726562 101.464844 C 109.183594 100.890625 105.058594 103.320312 103.257812 107.636719 C 102.136719 110.316406 102.109375 122.296875 103.210938 125.835938 C 104.65625 130.476562 107.175781 134.421875 111.050781 138.101562 C 117.683594 144.402344 125.886719 148.46875 137.425781 151.183594 C 146.421875 153.296875 148.238281 153.96875 150.058594 155.867188 L 151.574219 157.449219 L 151.730469 169.605469 C 151.878906 181.121094 151.941406 181.773438 152.902344 182.078125 C 153.457031 182.257812 154.382812 182.253906 154.953125 182.070312 C 155.949219 181.753906 155.992188 181.285156 155.992188 170.160156 C 155.992188 162.882812 155.773438 157.921875 155.402344 156.8125 C 153.890625 152.296875 150.121094 149.710938 143 148.292969 C 136.058594 146.914062 126.519531 143.597656 121.691406 140.890625 C 116.007812 137.707031 110.96875 132.707031 108.609375 127.921875 C 106.960938 124.570312 106.871094 124.09375 106.699219 117.5625 C 106.488281 109.445312 107.125 107.363281 110.214844 106.070312 C 111.792969 105.410156 112.589844 105.394531 115.542969 105.949219 C 120.230469 106.835938 126.738281 106.339844 131.304688 104.75 C 137.957031 102.433594 149.320312 96.113281 154.171875 92.027344 C 156.804688 89.8125 161.636719 87.515625 165.410156 86.691406 C 169.761719 85.738281 182.171875 86.296875 187.433594 87.683594 C 196.550781 90.085938 204.125 95.207031 208.117188 101.671875 C 213.191406 109.890625 214.71875 117.1875 214.71875 133.179688 C 214.71875 150.605469 216.542969 157.898438 223.746094 169.332031 C 226.046875 172.980469 235.425781 184.890625 241.964844 192.464844 C 251.644531 203.683594 264.859375 225.449219 271.699219 241.445312 C 272.261719 242.769531 272.726562 243.132812 273.839844 243.128906 C 276.070312 243.117188 276.691406 242.5 276.085938 240.910156 C 275.375 239.035156 266.691406 221.621094 264.882812 218.441406 C 262.453125 214.164062 255.75 203.671875 252.441406 198.960938 C 249.410156 194.648438 247.675781 192.503906 237.328125 180.253906 C 231.644531 173.523438 227.734375 168.089844 224.976562 163.078125 C 220.199219 154.402344 219.394531 150.261719 218.878906 131.660156 C 218.515625 118.558594 218.34375 116.613281 217.167969 112.128906 C 213.816406 99.347656 206.746094 90.894531 195.132812 85.785156 C 188.304688 82.78125 177.339844 81.265625 168.207031 82.066406 M 176.222656 99.292969 C 167.101562 111.820312 161.972656 127.140625 163.636719 136.875 C 165.535156 147.933594 174.816406 153.878906 188.972656 153.097656 C 194.152344 152.8125 198.738281 151.445312 201.449219 149.378906 C 208.574219 143.945312 213.421875 120.855469 209.585938 110.613281 C 208.820312 108.5625 208.523438 108.273438 207.167969 108.273438 C 205.65625 108.273438 205.628906 108.324219 205.804688 110.613281 C 205.90625 111.898438 206 116.808594 206.015625 121.527344 C 206.039062 129.371094 205.925781 130.492188 204.65625 134.683594 C 203.101562 139.824219 201.625 143.023438 199.976562 144.832031 C 194.53125 150.816406 176.679688 150.121094 171.265625 143.714844 C 168.546875 140.503906 167.726562 137.851562 167.777344 132.4375 C 167.855469 123.976562 171.886719 113.277344 178.90625 102.910156 C 181.539062 99.023438 182.078125 97.894531 181.640625 97.191406 C 181.339844 96.714844 180.53125 96.253906 179.847656 96.175781 C 178.84375 96.054688 178.132812 96.664062 176.222656 99.292969 M 148.300781 100.320312 C 147.394531 101.226562 147.535156 103.050781 148.585938 103.976562 C 150.367188 105.539062 153.90625 106.972656 155.988281 106.972656 C 159.824219 106.972656 164.550781 103.988281 164.222656 101.773438 C 163.890625 99.527344 162.589844 99.359375 159.820312 101.207031 C 156.855469 103.183594 154.925781 103.140625 151.863281 101.019531 C 149.722656 99.53125 149.191406 99.429688 148.300781 100.320312 M 172.070312 163.898438 C 170.816406 164.558594 169.34375 166.667969 163.765625 175.796875 C 159.898438 182.121094 158.652344 182.773438 150.003906 182.96875 C 144.132812 183.101562 143.546875 183.214844 140.289062 184.816406 C 135.601562 187.125 132.757812 190.785156 131.585938 196.015625 C 130.019531 203.003906 127.496094 206.945312 123.1875 209.128906 C 117.515625 212 115.507812 215.082031 116.480469 219.421875 C 117.324219 223.1875 118.882812 226.914062 120.484375 228.988281 C 121.292969 230.035156 122.535156 232.066406 123.25 233.503906 C 125.238281 237.503906 126.734375 238.234375 133.730469 238.617188 C 140.5625 238.992188 144.214844 239.953125 147.988281 242.367188 C 154.503906 246.535156 156.40625 253.554688 153.828125 263.925781 C 152.589844 268.921875 152.742188 270.160156 154.613281 270.160156 C 156.1875 270.160156 156.625 269.5625 157.671875 266.003906 C 159.453125 259.945312 159.734375 257.390625 159.097656 253.144531 C 158.222656 247.320312 156.90625 244.652344 153.207031 241.226562 C 148.011719 236.417969 142.101562 234.324219 133.644531 234.296875 C 128.621094 234.28125 128.121094 234.035156 126.675781 230.878906 C 125.972656 229.34375 124.667969 227.179688 123.777344 226.070312 C 122.078125 223.960938 120.652344 220.09375 120.652344 217.609375 C 120.652344 215.917969 121.875 214.636719 125.042969 213.007812 C 126.285156 212.367188 128.113281 211.179688 129.097656 210.367188 C 131.300781 208.550781 134.457031 202.675781 135.257812 198.90625 C 136.128906 194.800781 137.664062 191.882812 139.867188 190.140625 C 142.683594 187.90625 144.339844 187.40625 148.714844 187.464844 C 154.582031 187.542969 159.21875 186.644531 161.8125 184.921875 C 163.554688 183.769531 164.960938 181.925781 168.207031 176.546875 C 170.492188 172.757812 172.773438 169.171875 173.273438 168.585938 L 174.183594 167.519531 L 175.265625 168.800781 C 178.84375 173.035156 180.71875 179.296875 181.113281 188.378906 C 181.289062 192.351562 181.640625 194.691406 182.238281 195.84375 C 182.714844 196.769531 185.03125 199.425781 187.386719 201.75 C 200.582031 214.78125 209.972656 234.417969 215.996094 261.585938 C 217.828125 269.839844 218.019531 270.269531 219.789062 270.066406 C 221.765625 269.835938 221.835938 268.179688 220.183594 260.523438 C 216.195312 242.042969 209.15625 224.203125 200.808594 211.417969 C 198.601562 208.035156 195.019531 203.632812 191.425781 199.886719 L 185.617188 193.824219 L 185.613281 190.027344 C 185.605469 180.960938 183.429688 172.769531 179.519531 167.097656 C 177.453125 164.097656 174.277344 162.734375 172.070312 163.898438 M 137.578125 202.894531 C 136.566406 203.910156 136.5625 204.164062 137.578125 205.609375 C 138.707031 207.21875 142.070312 208.835938 144.300781 208.835938 C 147.878906 208.835938 152.332031 205.535156 151.539062 203.472656 C 150.976562 202.007812 149.246094 201.875 147.5 203.167969 C 145.460938 204.675781 143.132812 204.695312 141.066406 203.222656 C 139.15625 201.863281 138.660156 201.816406 137.578125 202.894531 M 304.183594 251.726562 C 298.238281 256.730469 301.53125 271.925781 308.5625 271.925781 C 312.414062 271.925781 314.988281 268.128906 315.011719 262.425781 C 315.027344 257.859375 314.121094 255.253906 311.617188 252.640625 C 309.003906 249.914062 306.679688 249.628906 304.183594 251.726562 M 278.699219 253.734375 C 276.871094 254.75 276.082031 256.554688 276.066406 259.765625 C 276.023438 268.890625 286.683594 277.492188 291.09375 271.890625 C 292.523438 270.070312 292.554688 264.941406 291.152344 261.671875 C 289.828125 258.585938 286.683594 255.15625 284.097656 253.980469 C 281.640625 252.859375 280.382812 252.804688 278.699219 253.734375 M 261.570312 274.652344 C 259.085938 275.917969 258.019531 278.367188 258.808594 281 C 259.558594 283.496094 262.820312 286.855469 265.992188 288.390625 C 269.28125 289.980469 274.648438 290.292969 277.082031 289.03125 C 282.347656 286.304688 280.417969 279.65625 273.289062 275.945312 C 269.003906 273.714844 264.40625 273.207031 261.570312 274.652344 M 309.5625 278.53125 C 308.136719 278.78125 303.535156 278.929688 299.339844 278.859375 C 290.980469 278.722656 290.292969 278.929688 287.769531 282.316406 C 286.359375 284.207031 286.425781 288.34375 287.949219 293.414062 C 288.875 296.503906 289.050781 298.21875 288.925781 303.027344 C 288.75 309.925781 289.460938 311.871094 293.132812 314.53125 C 295.03125 315.90625 295.835938 316.15625 298.390625 316.15625 C 302.148438 316.15625 304.425781 314.660156 309.203125 309.074219 C 311.003906 306.964844 314.847656 302.628906 317.742188 299.441406 C 320.636719 296.25 323.539062 292.625 324.1875 291.386719 C 327.808594 284.464844 322.984375 277.808594 314.5 278.019531 C 313.214844 278.050781 310.992188 278.28125 309.5625 278.53125 M 266.949219 298.160156 C 260.46875 299.863281 257.964844 304.675781 261.644531 308.355469 C 265.636719 312.347656 274.125 312.21875 278.242188 308.101562 C 280.398438 305.945312 280.707031 304.34375 279.4375 301.890625 C 277.976562 299.070312 271.195312 297.046875 266.949219 298.160156 "/></g></svg>