<svg xmlns="http://www.w3.org/2000/svg" xmlns:xlink="http://www.w3.org/1999/xlink" width="500" zoomAndPan="magnify" viewBox="0 0 375 374.999991" height="500" preserveAspectRatio="xMidYMid meet" version="1.2"><defs><clipPath id="04dcb5abd1"><path d="M 35.933594 26.535156 L 356.273438 26.535156 L 356.273438 346.875 L 35.933594 346.875 Z M 35.933594 26.535156 "/></clipPath><clipPath id="a05e609723"><path d="M 196.101562 26.535156 C 107.644531 26.535156 35.933594 98.246094 35.933594 186.703125 C 35.933594 275.164062 107.644531 346.875 196.101562 346.875 C 284.5625 346.875 356.273438 275.164062 356.273438 186.703125 C 356.273438 98.246094 284.5625 26.535156 196.101562 26.535156 Z M 196.101562 26.535156 "/></clipPath></defs><g id="e4e8639d2c"><g clip-rule="nonzero" clip-path="url(#04dcb5abd1)"><g clip-rule="nonzero" clip-path="url(#a05e609723)"><path style=" stroke:none;fill-rule:nonzero;fill:#0097b2;fill-opacity:1;" d="M 35.933594 26.535156 L 356.273438 26.535156 L 356.273438 346.875 L 35.933594 346.875 Z M 35.933594 26.535156 "/></g></g><path style=" stroke:none;fill-rule:evenodd;fill:#ffffff;fill-opacity:1;" d="M 184.171875 36.695312 C 149.835938 39.367188 116.449219 54.347656 92.027344 78.042969 C 81.164062 88.582031 73.621094 98.011719 66.40625 110.074219 C 56.363281 126.863281 49.910156 145.113281 46.695312 165.800781 C 45.816406 171.472656 45.691406 174 45.671875 186.511719 C 45.660156 195.894531 45.851562 202.210938 46.234375 204.996094 C 49.722656 230.347656 57.207031 250.515625 70.613281 270.691406 C 100.253906 315.296875 151.308594 340.871094 204.535156 337.777344 C 220.46875 336.851562 234.523438 333.933594 249.199219 328.5 C 254.730469 326.453125 270.625 318.808594 272.582031 317.25 L 273.695312 316.363281 L 271.875 316.355469 C 266.726562 316.328125 257.371094 312.507812 252.160156 308.308594 C 250.652344 307.09375 249.269531 306.101562 249.085938 306.101562 C 248.902344 306.101562 246.449219 307.015625 243.632812 308.128906 C 228.164062 314.25 213.894531 316.886719 196.199219 316.894531 C 182.097656 316.898438 173.300781 315.695312 159.675781 311.890625 C 131.871094 304.128906 105.53125 284.914062 88.550781 260.003906 C 73.996094 238.652344 66.363281 213.601562 66.363281 187.179688 C 66.363281 166.292969 70.523438 148.394531 79.773438 129.476562 C 86.003906 116.730469 94.300781 105.195312 104.359375 95.28125 C 123.566406 76.351562 144.769531 64.976562 170.808594 59.636719 C 179.390625 57.878906 185.203125 57.359375 196.199219 57.363281 C 210.292969 57.371094 219.101562 58.566406 232.320312 62.261719 C 260.59375 70.167969 286.449219 88.988281 303.882812 114.359375 C 325.316406 145.550781 331.796875 187.285156 320.878906 223.804688 C 319.195312 229.429688 315.960938 238.113281 314.421875 241.128906 C 313.914062 242.125 313.5625 242.984375 313.640625 243.039062 C 313.71875 243.089844 315.558594 244.3125 317.730469 245.753906 C 321.636719 248.347656 325.761719 252.449219 328.257812 256.21875 L 329.507812 258.105469 L 332.0625 252.820312 C 340.144531 236.082031 344.785156 219.058594 346.5625 199.652344 C 347.292969 191.621094 346.832031 173.878906 345.6875 166.246094 C 340.707031 132.964844 326.832031 104.960938 303.574219 81.234375 C 283.15625 60.410156 256.8125 45.882812 228.042969 39.585938 C 214.5 36.621094 198.601562 35.574219 184.171875 36.695312 M 180.609375 101.25 C 174.574219 101.78125 173.007812 102.460938 164.101562 108.425781 C 156.777344 113.332031 149.800781 116.855469 145.304688 117.921875 C 142.132812 118.671875 140.152344 118.664062 133.917969 117.875 C 130.027344 117.382812 126.492188 119.464844 124.945312 123.164062 C 123.988281 125.460938 123.960938 135.730469 124.90625 138.765625 C 126.144531 142.742188 128.308594 146.121094 131.628906 149.273438 C 137.3125 154.675781 144.339844 158.160156 154.230469 160.484375 C 161.9375 162.296875 163.496094 162.875 165.054688 164.5 L 166.355469 165.855469 L 166.488281 176.273438 C 166.617188 186.144531 166.667969 186.703125 167.492188 186.964844 C 167.96875 187.117188 168.761719 187.113281 169.25 186.957031 C 170.105469 186.683594 170.140625 186.285156 170.140625 176.75 C 170.140625 170.511719 169.953125 166.261719 169.636719 165.308594 C 168.339844 161.441406 165.109375 159.222656 159.007812 158.007812 C 153.058594 156.824219 144.882812 153.984375 140.746094 151.667969 C 135.875 148.933594 131.554688 144.652344 129.535156 140.546875 C 128.121094 137.679688 128.046875 137.269531 127.898438 131.671875 C 127.714844 124.714844 128.261719 122.929688 130.910156 121.824219 C 132.261719 121.257812 132.945312 121.242188 135.476562 121.71875 C 139.492188 122.480469 145.070312 122.054688 148.984375 120.691406 C 154.6875 118.707031 164.421875 113.289062 168.582031 109.785156 C 170.839844 107.890625 174.980469 105.921875 178.210938 105.214844 C 181.941406 104.398438 192.578125 104.875 197.089844 106.066406 C 204.902344 108.121094 211.394531 112.515625 214.8125 118.054688 C 219.160156 125.097656 220.472656 131.351562 220.472656 145.058594 C 220.472656 159.988281 222.035156 166.242188 228.210938 176.039062 C 230.179688 179.164062 238.21875 189.375 243.820312 195.863281 C 252.121094 205.476562 263.445312 224.132812 269.304688 237.84375 C 269.789062 238.976562 270.1875 239.289062 271.140625 239.285156 C 273.050781 239.273438 273.582031 238.746094 273.066406 237.382812 C 272.453125 235.777344 265.011719 220.851562 263.460938 218.125 C 261.378906 214.460938 255.636719 205.46875 252.800781 201.433594 C 250.203125 197.734375 248.71875 195.898438 239.847656 185.398438 C 234.976562 179.632812 231.628906 174.976562 229.261719 170.679688 C 225.167969 163.246094 224.476562 159.695312 224.035156 143.753906 C 223.726562 132.527344 223.578125 130.855469 222.570312 127.015625 C 219.699219 116.0625 213.636719 108.816406 203.6875 104.4375 C 197.835938 101.863281 188.4375 100.566406 180.609375 101.25 M 187.480469 116.015625 C 179.664062 126.75 175.265625 139.882812 176.695312 148.222656 C 178.320312 157.703125 186.273438 162.796875 198.40625 162.128906 C 202.84375 161.882812 206.777344 160.710938 209.097656 158.941406 C 215.207031 154.28125 219.359375 134.496094 216.074219 125.714844 C 215.417969 123.957031 215.160156 123.710938 214 123.710938 C 212.707031 123.710938 212.679688 123.753906 212.832031 125.714844 C 212.917969 126.816406 213 131.027344 213.011719 135.070312 C 213.035156 141.792969 212.933594 142.753906 211.847656 146.347656 C 210.515625 150.75 209.25 153.492188 207.839844 155.042969 C 203.171875 160.171875 187.871094 159.574219 183.230469 154.085938 C 180.902344 151.332031 180.199219 149.058594 180.242188 144.421875 C 180.308594 137.171875 183.765625 128 189.78125 119.113281 C 192.035156 115.785156 192.5 114.816406 192.121094 114.214844 C 191.863281 113.804688 191.171875 113.410156 190.585938 113.339844 C 189.726562 113.242188 189.117188 113.761719 187.480469 116.015625 M 163.550781 116.894531 C 162.773438 117.671875 162.894531 119.234375 163.796875 120.027344 C 165.320312 121.367188 168.351562 122.597656 170.136719 122.597656 C 173.425781 122.597656 177.476562 120.039062 177.195312 118.140625 C 176.910156 116.214844 175.796875 116.074219 173.421875 117.65625 C 170.882812 119.351562 169.226562 119.3125 166.605469 117.492188 C 164.765625 116.21875 164.316406 116.132812 163.550781 116.894531 M 183.921875 171.382812 C 182.847656 171.949219 181.585938 173.757812 176.804688 181.582031 C 173.492188 187 172.421875 187.558594 165.007812 187.726562 C 159.976562 187.839844 159.476562 187.9375 156.683594 189.3125 C 152.667969 191.289062 150.230469 194.425781 149.226562 198.910156 C 147.882812 204.898438 145.71875 208.273438 142.027344 210.144531 C 137.167969 212.609375 135.445312 215.25 136.277344 218.96875 C 137.003906 222.195312 138.339844 225.386719 139.710938 227.164062 C 140.402344 228.0625 141.46875 229.804688 142.082031 231.035156 C 143.785156 234.464844 145.070312 235.089844 151.0625 235.417969 C 156.917969 235.742188 160.050781 236.5625 163.285156 238.632812 C 168.867188 242.203125 170.496094 248.21875 168.289062 257.105469 C 167.226562 261.386719 167.359375 262.453125 168.960938 262.453125 C 170.308594 262.453125 170.683594 261.9375 171.582031 258.886719 C 173.105469 253.695312 173.347656 251.507812 172.804688 247.867188 C 172.054688 242.878906 170.925781 240.589844 167.753906 237.65625 C 163.304688 233.535156 158.238281 231.742188 150.988281 231.71875 C 146.683594 231.703125 146.253906 231.492188 145.015625 228.785156 C 144.414062 227.472656 143.296875 225.617188 142.53125 224.664062 C 141.078125 222.855469 139.855469 219.542969 139.855469 217.414062 C 139.855469 215.964844 140.902344 214.867188 143.617188 213.472656 C 144.683594 212.921875 146.25 211.902344 147.09375 211.207031 C 148.980469 209.652344 151.6875 204.617188 152.375 201.382812 C 153.121094 197.867188 154.433594 195.367188 156.320312 193.871094 C 158.734375 191.957031 160.15625 191.53125 163.90625 191.578125 C 168.933594 191.644531 172.90625 190.875 175.132812 189.402344 C 176.625 188.414062 177.828125 186.832031 180.609375 182.222656 C 182.570312 178.976562 184.523438 175.902344 184.953125 175.402344 L 185.730469 174.484375 L 186.65625 175.582031 C 189.726562 179.210938 191.332031 184.578125 191.671875 192.363281 C 191.820312 195.765625 192.125 197.773438 192.636719 198.761719 C 193.042969 199.554688 195.03125 201.832031 197.046875 203.824219 C 208.355469 214.988281 216.402344 231.820312 221.566406 255.101562 C 223.136719 262.179688 223.300781 262.542969 224.816406 262.371094 C 226.511719 262.175781 226.570312 260.753906 225.15625 254.191406 C 221.738281 238.355469 215.707031 223.066406 208.550781 212.109375 C 206.660156 209.210938 203.589844 205.4375 200.507812 202.222656 L 195.53125 197.027344 L 195.527344 193.773438 C 195.519531 186.007812 193.65625 178.988281 190.304688 174.125 C 188.535156 171.554688 185.8125 170.386719 183.921875 171.382812 M 154.363281 204.804688 C 153.492188 205.675781 153.492188 205.890625 154.359375 207.128906 C 155.328125 208.511719 158.210938 209.894531 160.121094 209.894531 C 163.1875 209.894531 167.003906 207.066406 166.324219 205.296875 C 165.84375 204.042969 164.359375 203.929688 162.863281 205.039062 C 161.117188 206.328125 159.121094 206.347656 157.351562 205.085938 C 155.714844 203.917969 155.289062 203.878906 154.363281 204.804688 M 297.144531 246.652344 C 292.050781 250.941406 294.871094 263.964844 300.898438 263.964844 C 304.199219 263.964844 306.40625 260.710938 306.421875 255.824219 C 306.4375 251.910156 305.664062 249.675781 303.515625 247.433594 C 301.277344 245.097656 299.285156 244.855469 297.144531 246.652344 M 275.304688 248.375 C 273.734375 249.246094 273.0625 250.789062 273.046875 253.542969 C 273.011719 261.363281 282.148438 268.734375 285.925781 263.933594 C 287.152344 262.375 287.175781 257.980469 285.976562 255.175781 C 284.84375 252.53125 282.148438 249.59375 279.933594 248.585938 C 277.824219 247.625 276.746094 247.574219 275.304688 248.375 M 260.625 266.300781 C 258.496094 267.382812 257.582031 269.484375 258.257812 271.742188 C 258.898438 273.882812 261.695312 276.757812 264.414062 278.074219 C 267.230469 279.4375 271.835938 279.707031 273.917969 278.625 C 278.429688 276.289062 276.777344 270.589844 270.667969 267.40625 C 266.996094 265.496094 263.054688 265.0625 260.625 266.300781 M 301.757812 269.625 C 300.53125 269.839844 296.589844 269.964844 292.996094 269.90625 C 285.828125 269.789062 285.242188 269.964844 283.078125 272.871094 C 281.871094 274.488281 281.929688 278.035156 283.230469 282.378906 C 284.027344 285.027344 284.175781 286.5 284.070312 290.617188 C 283.917969 296.53125 284.527344 298.199219 287.671875 300.476562 C 289.300781 301.65625 289.992188 301.871094 292.179688 301.871094 C 295.398438 301.871094 297.351562 300.589844 301.445312 295.800781 C 302.992188 293.996094 306.285156 290.277344 308.765625 287.546875 C 311.246094 284.8125 313.734375 281.707031 314.289062 280.640625 C 317.394531 274.710938 313.257812 269.007812 305.988281 269.1875 C 304.886719 269.214844 302.980469 269.410156 301.757812 269.625 M 265.234375 286.449219 C 259.679688 287.90625 257.535156 292.03125 260.691406 295.1875 C 264.109375 298.605469 271.386719 298.496094 274.910156 294.96875 C 276.757812 293.121094 277.023438 291.75 275.933594 289.644531 C 274.6875 287.226562 268.875 285.492188 265.234375 286.449219 "/></g></svg>